<svg width="40" height="40" viewBox="0 0 40 40" version="1.1" xmlns="http://www.w3.org/2000/svg" xmlns:xlink="http://www.w3.org/1999/xlink">
<title>icon</title>
<desc>Created using Figma</desc>
<g id="Canvas" transform="translate(-1513 -30219)">
<clipPath id="clip-0" clip-rule="evenodd">
<path d="M 1513 30219L 1553 30219L 1553 30259L 1513 30259L 1513 30219Z" fill="#FFFFFF"/>
</clipPath>
<g id="icon" clip-path="url(#clip-0)">
<g id="Vector">
<mask id="mask0_outline_ins">
<use xlink:href="#path0_fill" fill="white" transform="translate(1516 30222)"/>
</mask>
<g mask="url(#mask0_outline_ins)">
<use xlink:href="#path1_stroke_2x" transform="translate(1516 30222)" fill="#1071FF"/>
</g>
</g>
<g id="Ellipse">
<mask id="mask1_outline_ins">
<use xlink:href="#path2_fill" fill="white" transform="translate(1527 30233)"/>
</mask>
<g mask="url(#mask1_outline_ins)">
<use xlink:href="#path3_stroke_2x" transform="translate(1527 30233)" fill="#1071FF"/>
</g>
</g>
</g>
</g>
<defs>
<path id="path0_fill" d="M 0.0950347 22.2122C -0.229281 21.1185 0.297732 19.9843 1.35176 19.5387C 2.36525 19.1336 3.01388 18.0804 3.01388 16.9867C 3.01388 15.893 2.36525 14.9208 1.35176 14.4752C 0.297732 14.0296 -0.229281 12.8549 0.0950347 11.8017C 0.419351 10.7485 0.865285 9.69531 1.3923 8.68262C 1.91931 7.71043 3.09496 7.30535 4.14898 7.71043C 5.16247 8.11551 6.33812 7.87246 7.10837 7.10281C 7.87862 6.33316 8.12185 5.15844 7.71646 4.14574C 7.27052 3.09254 7.71646 1.91781 8.68941 1.39121C 9.70289 0.864609 10.7164 0.419023 11.8109 0.0949603C 12.9055 -0.229102 14.0406 0.297499 14.4866 1.3507C 14.8919 2.3634 15.9054 3.01152 17 3.01152C 18.0946 3.01152 19.0675 2.3634 19.5134 1.3507C 19.9594 0.297499 21.135 -0.229102 22.1891 0.0949603C 23.2431 0.419023 24.2971 0.864609 25.3106 1.39121C 26.2835 1.91781 26.6889 3.09254 26.2835 4.14574C 25.8781 5.15844 26.1214 6.33316 26.8916 7.10281C 27.6619 7.87246 28.8375 8.11551 29.851 7.71043C 30.905 7.26484 32.0807 7.71043 32.6077 8.68262C 33.1347 9.69531 33.5806 10.708 33.905 11.8017C 34.2293 12.8954 33.7023 14.0296 32.6482 14.4752C 31.6348 14.8803 30.9861 15.893 30.9861 16.9867C 30.9861 18.0804 31.6348 19.0526 32.6482 19.4982C 33.7023 19.9438 34.2293 21.1185 33.905 22.1717C 33.5806 23.2249 33.1347 24.2781 32.6077 25.2908C 32.0807 26.263 30.905 26.7086 29.851 26.263C 28.8375 25.8579 27.6619 26.101 26.8916 26.8706C 26.1214 27.6403 25.8781 28.815 26.2835 29.8277C 26.7295 30.8809 26.2835 32.0556 25.3106 32.5822C 24.2971 33.1088 23.2836 33.5544 22.1891 33.8785C 21.0945 34.2025 19.9594 33.6759 19.5134 32.6227C 19.1081 31.61 18.0946 30.9619 17 30.9619C 15.9054 30.9619 14.9325 31.61 14.4866 32.6227C 14.1217 33.4734 13.3109 34 12.4596 34C 12.2163 34 12.0136 34 11.8109 33.919C 10.7569 33.5949 9.70289 33.1493 8.68941 32.6227C 7.71646 32.0961 7.31106 30.9214 7.71646 29.8682C 8.12185 28.8555 7.87862 27.6808 7.10837 26.9111C 6.33812 26.1415 5.16247 25.8984 4.14898 26.3035C 3.09496 26.7491 1.91931 26.3035 1.3923 25.3313C 0.865285 24.3186 0.419351 23.3059 0.0950347 22.2122Z"/>
<path id="path1_stroke_2x" d="M 1.35176 19.5387L 0.980617 18.6101L 0.97146 18.6138L 0.962377 18.6176L 1.35176 19.5387ZM 0.0950347 22.2122L 1.05377 21.9279L 1.05377 21.9279L 0.0950347 22.2122ZM 1.3923 25.3313L 0.505229 25.793L 0.509132 25.8005L 0.513162 25.8079L 1.3923 25.3313ZM 4.14898 26.3035L 3.77784 25.3749L 3.76868 25.3786L 3.7596 25.3824L 4.14898 26.3035ZM 7.10837 26.9111L 6.40153 27.6185L 6.40154 27.6185L 7.10837 26.9111ZM 7.71646 29.8682L 6.788 29.4965L 6.78321 29.509L 7.71646 29.8682ZM 8.68941 32.6227L 8.21341 33.5022L 8.22084 33.5062L 8.22834 33.5101L 8.68941 32.6227ZM 11.8109 33.919L 12.1821 32.9904L 12.144 32.9752L 12.1048 32.9631L 11.8109 33.919ZM 14.4866 32.6227L 13.5713 32.2197L 13.5675 32.2286L 14.4866 32.6227ZM 19.5134 32.6227L 18.5851 32.9944L 18.5887 33.0035L 18.5926 33.0126L 19.5134 32.6227ZM 25.3106 32.5822L 25.7717 33.4696L 25.7792 33.4657L 25.7866 33.4617L 25.3106 32.5822ZM 26.2835 29.8277L 25.3552 30.1993L 25.3588 30.2085L 25.3627 30.2176L 26.2835 29.8277ZM 26.8916 26.8706L 27.5985 27.578L 27.5985 27.578L 26.8916 26.8706ZM 29.851 26.263L 30.2404 25.3419L 30.2313 25.3381L 30.2222 25.3344L 29.851 26.263ZM 32.6077 25.2908L 33.4868 25.7674L 33.4909 25.76L 33.4948 25.7525L 32.6077 25.2908ZM 33.905 22.1717L 32.9492 21.8774L 32.9492 21.8774L 33.905 22.1717ZM 32.6482 19.4982L 32.2458 20.4136L 32.2523 20.4165L 32.2589 20.4193L 32.6482 19.4982ZM 32.6482 14.4752L 33.0194 15.4038L 33.0285 15.4002L 33.0376 15.3963L 32.6482 14.4752ZM 33.905 11.8017L 32.9462 12.086L 32.9462 12.086L 33.905 11.8017ZM 32.6077 8.68262L 33.4948 8.22098L 33.4909 8.21348L 33.4868 8.20605L 32.6077 8.68262ZM 29.851 7.71043L 30.2222 8.63901L 30.2313 8.63535L 30.2404 8.63151L 29.851 7.71043ZM 26.8916 7.10281L 27.5985 6.39543L 26.8916 7.10281ZM 26.2835 4.14574L 27.212 4.51742L 27.2168 4.50496L 26.2835 4.14574ZM 25.3106 1.39121L 25.7866 0.511762L 25.7792 0.507741L 25.7717 0.503846L 25.3106 1.39121ZM 22.1891 0.0949603L 22.4829 -0.860883L 22.4829 -0.860883L 22.1891 0.0949603ZM 19.5134 1.3507L 20.4286 1.75371L 20.4315 1.74717L 20.4343 1.7406L 19.5134 1.3507ZM 14.4866 1.3507L 15.4149 0.979061L 15.4113 0.969896L 15.4074 0.960804L 14.4866 1.3507ZM 11.8109 0.0949603L 11.5271 -0.863898L 11.5271 -0.863898L 11.8109 0.0949603ZM 8.68941 1.39121L 8.22834 0.503846L 8.22084 0.507741L 8.21341 0.511762L 8.68941 1.39121ZM 7.71646 4.14574L 8.64483 3.7741L 8.64116 3.76494L 8.63732 3.75584L 7.71646 4.14574ZM 7.10837 7.10281L 6.40154 6.39543L 6.40154 6.39543L 7.10837 7.10281ZM 4.14898 7.71043L 4.52015 6.78177L 4.50772 6.77699L 4.14898 7.71043ZM 1.3923 8.68262L 0.513162 8.20605L 0.509132 8.21348L 0.505229 8.22098L 1.3923 8.68262ZM 0.0950347 11.8017L 1.05075 12.096L 1.05075 12.096L 0.0950347 11.8017ZM 1.35176 14.4752L 1.75423 13.5598L 1.74771 13.5569L 1.74114 13.5542L 1.35176 14.4752ZM 0.962377 18.6176C -0.565869 19.2637 -1.33114 20.9201 -0.863703 22.4965L 1.05377 21.9279C 0.872579 21.3169 1.16133 20.7049 1.74114 20.4598L 0.962377 18.6176ZM -0.863703 22.4965C -0.519496 23.6503 -0.0363262 24.7512 0.505229 25.793L 2.27937 24.8697C 1.7669 23.8861 1.3582 22.9616 1.05377 21.9279L -0.863703 22.4965ZM 0.513162 25.8079C 1.27778 27.2184 2.99528 27.8769 4.53836 27.2246L 3.7596 25.3824C 3.19464 25.6213 2.56084 25.3886 2.27143 24.8548L 0.513162 25.8079ZM 4.52012 27.2321C 5.16163 26.9757 5.91352 27.1309 6.40153 27.6185L 7.8152 26.2038C 6.76271 25.1521 5.16331 24.8212 3.77784 25.3749L 4.52012 27.2321ZM 6.40154 27.6185C 6.88943 28.106 7.04431 28.8565 6.78808 29.4966L 8.64483 30.2398C 9.1994 28.8545 8.86781 27.2555 7.8152 26.2037L 6.40154 27.6185ZM 6.78321 29.509C 6.2077 31.0041 6.77324 32.7227 8.21341 33.5022L 9.1654 31.7433C 8.65968 31.4696 8.41443 30.8387 8.64971 30.2274L 6.78321 29.509ZM 8.22834 33.5101C 9.27733 34.0543 10.4148 34.5346 11.5171 34.8748L 12.1048 32.9631C 11.099 32.6552 10.1285 32.2444 9.15047 31.7354L 8.22834 33.5101ZM 11.4398 34.8476C 11.8247 34.982 12.2163 35 12.4596 35L 12.4596 33C 12.3275 33 12.2653 32.9992 12.2148 32.9944C 12.176 32.9907 12.1727 32.9867 12.1821 32.9904L 11.4398 34.8476ZM 12.4596 35C 13.7237 35 14.8882 34.2231 15.4056 33.0169L 13.5675 32.2286C 13.3552 32.7237 12.8981 33 12.4596 33L 12.4596 35ZM 15.4017 33.0257C 15.6924 32.3657 16.3129 31.9619 17 31.9619L 17 29.9619C 15.498 29.9619 14.1726 30.8544 13.5714 32.2197L 15.4017 33.0257ZM 17 31.9619C 17.7108 31.9619 18.3407 32.3839 18.5851 32.9944L 20.4418 32.2511C 19.8754 30.8362 18.4784 29.9619 17 29.9619L 17 31.9619ZM 18.5926 33.0126C 19.2395 34.5405 20.8969 35.3039 22.4729 34.8373L 21.9052 32.9196C 21.292 33.1011 20.6793 32.8114 20.4343 32.2328L 18.5926 33.0126ZM 22.4729 34.8373C 23.6275 34.4934 24.7291 34.0107 25.7717 33.4696L 24.8495 31.6949C 23.8651 32.207 22.9398 32.6154 21.9052 32.9196L 22.4729 34.8373ZM 25.7866 33.4617C 27.1977 32.6979 27.8579 30.9811 27.2044 29.4378L 25.3627 30.2176C 25.6011 30.7807 25.3694 31.4133 24.8346 31.7028L 25.7866 33.4617ZM 27.2119 29.4561C 26.9557 28.816 27.1106 28.0655 27.5985 27.578L 26.1848 26.1632C 25.1322 27.215 24.8006 28.814 25.3552 30.1993L 27.2119 29.4561ZM 27.5985 27.578C 28.0865 27.0904 28.8384 26.9352 29.4799 27.1916L 30.2222 25.3344C 28.8367 24.7807 27.2373 25.1116 26.1848 26.1632L 27.5985 27.578ZM 29.4616 27.1841C 31.0047 27.8364 32.7222 27.1779 33.4868 25.7674L 31.7286 24.8143C 31.4392 25.3481 30.8054 25.5808 30.2404 25.3419L 29.4616 27.1841ZM 33.4948 25.7525C 34.0394 24.7042 34.5201 23.5675 34.8607 22.466L 32.9492 21.8774C 32.6411 22.8824 32.23 23.852 31.7206 24.8292L 33.4948 25.7525ZM 34.8607 22.466C 35.3349 20.9259 34.5676 19.2239 33.0376 18.5771L 32.2589 20.4193C 32.8369 20.6636 33.1236 21.3112 32.9492 21.8774L 34.8607 22.466ZM 33.0507 18.5828C 32.3895 18.2921 31.9861 17.6721 31.9861 16.9867L 29.9861 16.9867C 29.9861 18.4888 30.88 19.8132 32.2458 20.4136L 33.0507 18.5828ZM 31.9861 16.9867C 31.9861 16.2777 32.4077 15.6483 33.0194 15.4038L 32.2771 13.5467C 30.8618 14.1124 29.9861 15.5083 29.9861 16.9867L 31.9861 16.9867ZM 33.0376 15.3963C 34.5659 14.7502 35.3311 13.0938 34.8637 11.5174L 32.9462 12.086C 33.1274 12.6971 32.8387 13.309 32.2589 13.5542L 33.0376 15.3963ZM 34.8637 11.5174C 34.5195 10.3637 34.0363 9.26276 33.4948 8.22098L 31.7206 9.14425C 32.2331 10.1279 32.6418 11.0523 32.9462 12.086L 34.8637 11.5174ZM 33.4868 8.20605C 32.7222 6.79554 31.0047 6.13702 29.4616 6.78935L 30.2404 8.63151C 30.8054 8.39267 31.4392 8.62532 31.7286 9.15919L 33.4868 8.20605ZM 29.4799 6.78185C 28.8384 7.03825 28.0865 6.88307 27.5985 6.39543L 26.1848 7.81019C 27.2373 8.86185 28.8367 9.19276 30.2222 8.63901L 29.4799 6.78185ZM 27.5985 6.39543C 27.1106 5.90792 26.9557 5.15745 27.2119 4.51738L 25.3552 3.7741C 24.8006 5.15942 25.1322 6.75841 26.1848 7.81019L 27.5985 6.39543ZM 27.2168 4.50496C 27.7923 3.00981 27.2268 1.29125 25.7866 0.511762L 24.8346 2.27066C 25.3403 2.54438 25.5856 3.17527 25.3503 3.78652L 27.2168 4.50496ZM 25.7717 0.503846C 24.7227 -0.0403219 23.5851 -0.520651 22.4829 -0.860883L 21.8952 1.0508C 22.901 1.3587 23.8715 1.76954 24.8495 2.27857L 25.7717 0.503846ZM 22.4829 -0.860883C 20.9432 -1.33429 19.2402 -0.568801 18.5926 0.960804L 20.4343 1.7406C 20.6785 1.1638 21.3269 0.876081 21.8952 1.0508L 22.4829 -0.860883ZM 18.5982 0.9477C 18.3076 1.60777 17.6871 2.01152 17 2.01152L 17 4.01152C 18.502 4.01152 19.8274 3.11903 20.4286 1.75371L 18.5982 0.9477ZM 17 2.01152C 16.2892 2.01152 15.6593 1.58952 15.4149 0.979061L 13.5582 1.72234C 14.1246 3.13727 15.5216 4.01152 17 4.01152L 17 2.01152ZM 15.4074 0.960804C 14.7605 -0.567029 13.1031 -1.3305 11.5271 -0.863898L 12.0948 1.05382C 12.7079 0.872296 13.3207 1.16203 13.5657 1.7406L 15.4074 0.960804ZM 11.5271 -0.863898C 10.3725 -0.519996 9.27089 -0.037265 8.22834 0.503846L 9.15047 2.27857C 10.1349 1.76648 11.0602 1.35804 12.0948 1.05382L 11.5271 -0.863898ZM 8.21341 0.511762C 6.80231 1.27551 6.14214 2.99231 6.7956 4.53564L 8.63732 3.75584C 8.3989 3.19276 8.63061 2.56011 9.1654 2.27066L 8.21341 0.511762ZM 6.78808 4.51738C 7.04431 5.15745 6.88943 5.90792 6.40154 6.39543L 7.8152 7.81019C 8.86781 6.75841 9.1994 5.15942 8.64483 3.7741L 6.78808 4.51738ZM 6.40154 6.39543C 5.91352 6.88306 5.16163 7.03825 4.52012 6.78185L 3.77784 8.63901C 5.16331 9.19276 6.76271 8.86185 7.8152 7.81019L 6.40154 6.39543ZM 4.50772 6.77699C 3.01276 6.20246 1.29349 6.76656 0.513162 8.20605L 2.27143 9.15919C 2.54513 8.6543 3.17715 8.40824 3.79025 8.64387L 4.50772 6.77699ZM 0.505229 8.22098C -0.0393902 9.26921 -0.520152 10.406 -0.86068 11.5074L 1.05075 12.096C 1.35885 11.0911 1.76996 10.1214 2.27937 9.14425L 0.505229 8.22098ZM -0.86068 11.5074C -1.33494 13.0476 -0.567637 14.7495 0.962376 15.3963L 1.74114 13.5542C 1.1631 13.3098 0.876382 12.6623 1.05075 12.096L -0.86068 11.5074ZM 0.949284 15.3907C 1.6105 15.6814 2.01388 16.3013 2.01388 16.9867L 4.01388 16.9867C 4.01388 15.4847 3.11999 14.1603 1.75423 13.5598L 0.949284 15.3907ZM 2.01388 16.9867C 2.01388 17.7129 1.5772 18.3717 0.980617 18.6101L 1.7229 20.4673C 3.15329 19.8956 4.01388 18.4479 4.01388 16.9867L 2.01388 16.9867Z"/>
<path id="path2_fill" d="M 12 6C 12 9.31371 9.31371 12 6 12C 2.68629 12 0 9.31371 0 6C 0 2.68629 2.68629 0 6 0C 9.31371 0 12 2.68629 12 6Z"/>
<path id="path3_stroke_2x" d="M 11 6C 11 8.76142 8.76142 11 6 11L 6 13C 9.86599 13 13 9.86599 13 6L 11 6ZM 6 11C 3.23858 11 1 8.76142 1 6L -1 6C -1 9.86599 2.13401 13 6 13L 6 11ZM 1 6C 1 3.23858 3.23858 1 6 1L 6 -1C 2.13401 -1 -1 2.13401 -1 6L 1 6ZM 6 1C 8.76142 1 11 3.23858 11 6L 13 6C 13 2.13401 9.86599 -1 6 -1L 6 1Z"/>
</defs>
</svg>
