<svg width="40" height="40" viewBox="0 0 40 40" version="1.1" xmlns="http://www.w3.org/2000/svg" xmlns:xlink="http://www.w3.org/1999/xlink">
<title>icon</title>
<desc>Created using Figma</desc>
<g id="Canvas" transform="translate(-2115 -29862)">
<clipPath id="clip-0" clip-rule="evenodd">
<path d="M 2115 29862L 2155 29862L 2155 29902L 2115 29902L 2115 29862Z" fill="#FFFFFF"/>
</clipPath>
<g id="icon" clip-path="url(#clip-0)">
<g id="Rectangle">
<mask id="mask0_outline_ins">
<use xlink:href="#path0_fill" fill="white" transform="translate(2117 29867)"/>
</mask>
<g mask="url(#mask0_outline_ins)">
<use xlink:href="#path1_stroke_2x" transform="translate(2117 29867)" fill="#1071FF"/>
</g>
</g>
<g id="Line">
<use xlink:href="#path2_stroke" transform="translate(2117 29886)" fill="#1071FF"/>
</g>
<g id="Rectangle">
<mask id="mask1_outline_ins">
<use xlink:href="#path3_fill" fill="white" transform="translate(2126 29890)"/>
</mask>
<g mask="url(#mask1_outline_ins)">
<use xlink:href="#path4_stroke_2x" transform="translate(2126 29890)" fill="#1071FF"/>
</g>
</g>
</g>
</g>
<defs>
<path id="path0_fill" d="M 0 1C 0 0.447716 0.447715 0 1 0L 35 0C 35.5523 0 36 0.447715 36 1L 36 23C 36 23.5523 35.5523 24 35 24L 1 24C 0.447716 24 0 23.5523 0 23L 0 1Z"/>
<path id="path1_stroke_2x" d="M 1 1L 35 1L 35 -1L 1 -1L 1 1ZM 35 1L 35 23L 37 23L 37 1L 35 1ZM 35 23L 1 23L 1 25L 35 25L 35 23ZM 1 23L 1 1L -1 1L -1 23L 1 23ZM 1 23L 1 23L -1 23C -1 24.1046 -0.104568 25 1 25L 1 23ZM 35 23L 35 25C 36.1046 25 37 24.1046 37 23L 35 23ZM 35 1L 37 1C 37 -0.10457 36.1046 -1 35 -1L 35 1ZM 1 -1C -0.10457 -1 -1 -0.104568 -1 1L 1 1L 1 1L 1 -1Z"/>
<path id="path2_stroke" d="M 0 0L 35 0L 35 -1L 0 -1L 0 0Z"/>
<path id="path3_fill" d="M 3.70313 0.4453C 3.8886 0.167101 4.20083 0 4.53518 0L 13.4648 0C 13.7992 0 14.1114 0.167101 14.2969 0.4453L 16.9635 4.4453C 17.4066 5.10986 16.9302 6 16.1315 6L 1.86852 6C 1.06982 6 0.59343 5.10985 1.03647 4.4453L 3.70313 0.4453Z"/>
<path id="path4_stroke_2x" d="M 1.03647 4.4453L 0.204416 3.8906L 1.03647 4.4453ZM 14.2969 0.4453L 15.1289 -0.1094L 14.2969 0.4453ZM 3.70313 0.4453L 2.87108 -0.109401L 3.70313 0.4453ZM 4.53518 1L 13.4648 1L 13.4648 -1L 4.53518 -1L 4.53518 1ZM 13.4648 1L 16.1315 5L 17.7956 3.8906L 15.1289 -0.1094L 13.4648 1ZM 16.1315 5L 1.86852 5L 1.86852 7L 16.1315 7L 16.1315 5ZM 1.86852 5L 4.53518 1L 2.87108 -0.109401L 0.204416 3.8906L 1.86852 5ZM 1.86852 5L 1.86852 5L 0.204416 3.8906C -0.681657 5.21971 0.271126 7 1.86852 7L 1.86852 5ZM 16.1315 5L 16.1315 5L 16.1315 7C 17.7289 7 18.6817 5.21971 17.7956 3.8906L 16.1315 5ZM 13.4648 1L 15.1289 -0.1094C 14.758 -0.665798 14.1335 -1 13.4648 -1L 13.4648 1ZM 4.53518 -1C 3.86648 -1 3.24201 -0.665798 2.87108 -0.109401L 4.53518 1L 4.53518 1L 4.53518 -1Z"/>
</defs>
</svg>
