<svg width="40" height="40" viewBox="0 0 40 40" version="1.1" xmlns="http://www.w3.org/2000/svg" xmlns:xlink="http://www.w3.org/1999/xlink">
<title>icon</title>
<desc>Created using Figma</desc>
<g id="Canvas" transform="translate(-2115 -30217)">
<clipPath id="clip-0" clip-rule="evenodd">
<path d="M 2115 30217L 2155 30217L 2155 30257L 2115 30257L 2115 30217Z" fill="#FFFFFF"/>
</clipPath>
<g id="icon" clip-path="url(#clip-0)">
<g id="Rectangle 2">
<mask id="mask0_outline_ins">
<use xlink:href="#path0_fill" fill="white" transform="translate(2120 30218)"/>
</mask>
<g mask="url(#mask0_outline_ins)">
<use xlink:href="#path1_stroke_2x" transform="translate(2120 30218)" fill="#1071FF"/>
</g>
</g>
<g id="Vector">
<use xlink:href="#path2_stroke" transform="translate(2123 30223)" fill="#1071FF"/>
</g>
<g id="Vector">
<use xlink:href="#path3_stroke" transform="translate(2123 30228)" fill="#1071FF"/>
</g>
<g id="Vector">
<use xlink:href="#path2_stroke" transform="translate(2123 30233)" fill="#1071FF"/>
</g>
<g id="Vector 2">
<use xlink:href="#path4_stroke" transform="translate(2123.5 30245.5)" fill="#1071FF"/>
</g>
</g>
</g>
<defs>
<path id="path0_fill" d="M 0 2C 0 0.89543 0.895431 0 2 0L 27 0C 28.1046 0 29 0.895431 29 2L 29 36C 29 37.1046 28.1046 38 27 38L 2 38C 0.89543 38 0 37.1046 0 36L 0 2Z"/>
<path id="path1_stroke_2x" d="M 2 1L 27 1L 27 -1L 2 -1L 2 1ZM 28 2L 28 36L 30 36L 30 2L 28 2ZM 27 37L 2 37L 2 39L 27 39L 27 37ZM 1 36L 1 2L -1 2L -1 36L 1 36ZM 2 37C 1.44772 37 1 36.5523 1 36L -1 36C -1 37.6569 0.343145 39 2 39L 2 37ZM 28 36C 28 36.5523 27.5523 37 27 37L 27 39C 28.6569 39 30 37.6569 30 36L 28 36ZM 27 1C 27.5523 1 28 1.44771 28 2L 30 2C 30 0.343146 28.6569 -1 27 -1L 27 1ZM 2 -1C 0.343146 -1 -1 0.343144 -1 2L 1 2C 1 1.44772 1.44771 1 2 1L 2 -1Z"/>
<path id="path2_stroke" d="M 0 0.5L 19 0.5L 19 -0.5L 0 -0.5L 0 0.5Z"/>
<path id="path3_stroke" d="M 0 0.5L 14.4762 0.5L 14.4762 -0.5L 0 -0.5L 0 0.5Z"/>
<path id="path4_stroke" d="M 3.5 6L 3.14645 6.35355L 3.5 6.70711L 3.85355 6.35355L 3.5 6ZM -0.353553 2.85355L 3.14645 6.35355L 3.85355 5.64645L 0.353553 2.14645L -0.353553 2.85355ZM 3.85355 6.35355L 9.85355 0.353553L 9.14645 -0.353553L 3.14645 5.64645L 3.85355 6.35355Z"/>
</defs>
</svg>
