<svg xmlns="http://www.w3.org/2000/svg" width="45" height="45" viewBox="0 0 45 45">
  <defs>
    <style>
      .cls-1 {
        fill: #313334;
      }

      .cls-2 {
        fill: #f4f4f4;
        fill-rule: evenodd;
      }
    </style>
  </defs>
  <circle id="Ellipse_5_copy" data-name="Ellipse 5 copy" class="cls-1" cx="22.5" cy="22.5" r="22.5"/>
  <path class="cls-2" d="M1082.87,171.541c-0.04-.069-0.07-0.125-0.1-0.17a13.538,13.538,0,0,0-2.68-3.026l-0.03-.027-0.01-.015-0.02-.013h-0.01c-0.6-.558-0.98-0.93-1.14-1.123a1.035,1.035,0,0,1-.2-1.11,10.447,10.447,0,0,1,1.27-1.794c0.38-.481.69-0.868,0.91-1.162,1.62-2.1,2.33-3.441,2.11-4.026l-0.08-.136a0.814,0.814,0,0,0-.44-0.224,2.218,2.218,0,0,0-.9-0.037l-4.05.027a0.531,0.531,0,0,0-.28.01c-0.12.025-.18,0.039-0.18,0.039l-0.07.036-0.06.04a0.476,0.476,0,0,0-.15.144,0.694,0.694,0,0,0-.14.238,23.536,23.536,0,0,1-1.51,3.082c-0.35.565-.67,1.057-0.96,1.47a6.784,6.784,0,0,1-.73.919,4.381,4.381,0,0,1-.53.473,0.523,0.523,0,0,1-.37.15c-0.08-.019-0.16-0.04-0.24-0.056a0.9,0.9,0,0,1-.31-0.335,1.324,1.324,0,0,1-.16-0.533,4.229,4.229,0,0,1-.05-0.555c-0.01-.155-0.01-0.376,0-0.658s0.02-.474.02-0.574c0-.347,0-0.725.02-1.13s0.02-.729.03-0.966,0.02-.488.02-0.753a3.3,3.3,0,0,0-.05-0.623,1.782,1.782,0,0,0-.15-0.437,0.753,0.753,0,0,0-.29-0.33,1.588,1.588,0,0,0-.47-0.184,9.79,9.79,0,0,0-1.9-.18,9.474,9.474,0,0,0-3.36.331,1.822,1.822,0,0,0-.53.411c-0.17.2-.2,0.31-0.07,0.328a1.719,1.719,0,0,1,1.19.589l0.09,0.165a2.629,2.629,0,0,1,.19.627,5.9,5.9,0,0,1,.13,1,9.73,9.73,0,0,1,0,1.713c-0.05.474-.09,0.844-0.13,1.107a2.6,2.6,0,0,1-.19.645,3.084,3.084,0,0,1-.17.3,0.29,0.29,0,0,1-.07.069,1.107,1.107,0,0,1-.38.069,0.918,0.918,0,0,1-.48-0.191,3.272,3.272,0,0,1-.58-0.529,6.815,6.815,0,0,1-.69-0.939q-0.375-.6-0.78-1.422l-0.23-.4c-0.14-.257-0.33-0.627-0.58-1.118s-0.46-.96-0.64-1.415a0.953,0.953,0,0,0-.34-0.44l-0.07-.04a0.955,0.955,0,0,0-.23-0.117,1.609,1.609,0,0,0-.32-0.089l-3.85.028a0.98,0.98,0,0,0-.8.26l-0.06.083a0.414,0.414,0,0,0-.04.218,1.213,1.213,0,0,0,.08.37c0.56,1.287,1.18,2.528,1.84,3.723s1.23,2.16,1.72,2.891,0.98,1.418,1.49,2.067,0.84,1.063,1.01,1.246,0.29,0.319.38,0.41l0.35,0.329a8.534,8.534,0,0,0,1,.787,16.6,16.6,0,0,0,1.44.9,7.974,7.974,0,0,0,1.85.726,6.655,6.655,0,0,0,2.06.226h1.62a1.144,1.144,0,0,0,.74-0.3l0.06-.068a1.119,1.119,0,0,0,.1-0.255,1.45,1.45,0,0,0,.05-0.376,4.372,4.372,0,0,1,.09-1.059,2.7,2.7,0,0,1,.24-0.713,1.838,1.838,0,0,1,.3-0.4,1.878,1.878,0,0,1,.24-0.2,0.947,0.947,0,0,1,.12-0.047,0.9,0.9,0,0,1,.79.212,4.912,4.912,0,0,1,.86.793q0.4,0.472.96,1.062a6.465,6.465,0,0,0,.99.877l0.28,0.162a3.47,3.47,0,0,0,.73.3,1.608,1.608,0,0,0,.79.067l3.6-.055a1.694,1.694,0,0,0,.83-0.17,0.728,0.728,0,0,0,.35-0.376,0.917,0.917,0,0,0,0-.466,1.769,1.769,0,0,0-.09-0.364h0Zm0,0" transform="translate(-1048 -142)"/>
</svg>
